<?xml version="1.0" encoding="utf-8"?>
<!-- Generator: Adobe Illustrator 19.1.0, SVG Export Plug-In . SVG Version: 6.00 Build 0)  -->
<svg version="1.1" id="Layer_1" xmlns="http://www.w3.org/2000/svg" xmlns:xlink="http://www.w3.org/1999/xlink" x="0px" y="0px"
	 viewBox="0 0 160 160" style="enable-background:new 0 0 160 160;" xml:space="preserve">
<style type="text/css">
	.st0{fill:#8F1A20;}
	.st1{opacity:0.8;}
	.st2{fill:#FFFFFF;}
</style>
<circle class="st0" cx="80" cy="80" r="78.7"/>
<g class="st1">
	<g>
		<path class="st2" d="M48.7,75.1L36.9,26.3h2.7l9.4,39c0.5,2,0.7,3.2,0.8,3.6c0.2-0.8,0.5-2,0.8-3.5l9.8-39.2h2.1l9.8,39.2
			c0.4,1.5,0.6,2.6,0.8,3.5c0.1-0.5,0.4-1.7,0.8-3.6l9.4-39h2.7L74.2,75.1h-2.1L63.4,40c-0.8-3.3-1.5-5.9-1.9-7.7
			c-0.4,1.8-1,4.3-1.9,7.7l-8.8,35.1H48.7z"/>
	</g>
	<g>
		<path class="st2" d="M73.9,84.9l11.8,48.8H83l-9.4-39c-0.5-2-0.7-3.2-0.8-3.6c-0.2,0.8-0.5,2-0.8,3.5l-9.8,39.2h-2.1l-9.8-39.2
			C50,93,49.7,91.9,49.5,91c-0.1,0.5-0.4,1.7-0.8,3.6l-9.4,39h-2.7l11.8-48.8h2.1l8.8,35.1c0.8,3.3,1.5,5.9,1.9,7.7
			c0.4-1.8,1-4.3,1.9-7.7l8.8-35.1H73.9z"/>
	</g>
</g>
<g>
	<path class="st2" d="M86.5,87.1V72.9h8.3v1.4h-6.9v4.8h4.7v1.3h-4.7v6.7H86.5z"/>
	<path class="st2" d="M104,87.1l-1.3-3.7h-5.6l-1.2,3.7h-1.5l5-14.3h1.1l5,14.3H104z M102.3,82.2l-2-5.7c-0.2-0.6-0.4-1-0.4-1.3
		l-0.2,0.5c-0.1,0.4-0.2,0.6-0.2,0.8l-2,5.7H102.3z"/>
	<path class="st2" d="M108.4,87.1V72.9h5.2c1.5,0,2.7,0.4,3.4,1.1c0.7,0.8,1,1.7,1,2.8c0,1-0.3,1.8-0.9,2.5
		c-0.6,0.7-1.5,1.2-2.7,1.4l3.2,6.4h-1.6l-3.1-6.4h-3.2v6.4H108.4z M109.8,79.5h3.9c1,0,1.8-0.3,2.3-0.8c0.5-0.5,0.7-1.1,0.7-1.9
		c0-0.7-0.2-1.3-0.7-1.9c-0.5-0.5-1.2-0.8-2.3-0.8h-3.9V79.5z"/>
	<path class="st2" d="M133.8,87.1h-1.4v-9.7v-0.9c0,0.1-0.1,0.2-0.2,0.4c-0.1,0.2-0.2,0.3-0.2,0.4l-4.4,9.9l-4.1-9.9
		c0-0.1-0.1-0.2-0.2-0.4c-0.1-0.2-0.1-0.3-0.2-0.4v0.8v9.7h-1.4V72.9h1.2l4.4,10.3c0,0.1,0.1,0.2,0.2,0.4c0.1,0.2,0.1,0.3,0.2,0.4
		c0-0.1,0.1-0.2,0.2-0.4c0.1-0.2,0.1-0.3,0.2-0.4l4.5-10.3h1.2V87.1z"/>
	<path class="st2" d="M142,87.4c-1.2,0-2.2-0.3-3-0.8c-0.9-0.6-1.4-1.2-1.7-2.1l1.3-0.5c0.3,0.6,0.7,1.1,1.3,1.5
		c0.6,0.4,1.3,0.6,2.1,0.6c0.9,0,1.7-0.2,2.2-0.7c0.5-0.5,0.8-1.1,0.8-1.9c0-0.8-0.3-1.5-0.9-2c-0.6-0.5-1.4-1-2.3-1.3
		c-0.6-0.2-1.1-0.4-1.5-0.7c-0.4-0.2-0.9-0.5-1.3-0.8c-0.4-0.3-0.8-0.7-1-1.2c-0.2-0.5-0.3-1-0.3-1.5c0-0.9,0.4-1.7,1.1-2.4
		c0.8-0.6,1.8-1,3.1-1c1,0,1.9,0.2,2.6,0.6c0.7,0.4,1.2,1,1.4,1.6l-1.3,0.4c-0.2-0.4-0.5-0.7-1-1c-0.5-0.3-1-0.4-1.7-0.4
		c-0.8,0-1.5,0.2-2,0.6c-0.5,0.4-0.7,0.9-0.7,1.5c0,0.4,0.1,0.7,0.3,1c0.2,0.3,0.4,0.5,0.8,0.8c0.3,0.2,0.7,0.4,1,0.6
		c0.3,0.1,0.7,0.3,1.3,0.5c0.6,0.2,1,0.4,1.5,0.7c0.4,0.2,0.9,0.5,1.3,0.9c0.4,0.4,0.8,0.8,1,1.3c0.2,0.5,0.4,1.1,0.4,1.7
		c0,1.2-0.4,2.2-1.2,2.9C144.4,87,143.3,87.4,142,87.4z"/>
</g>
</svg>
