<?xml version="1.0" encoding="utf-8"?>
<!-- Generator: Adobe Illustrator 19.1.0, SVG Export Plug-In . SVG Version: 6.00 Build 0)  -->
<svg version="1.1" id="Layer_1" xmlns="http://www.w3.org/2000/svg" xmlns:xlink="http://www.w3.org/1999/xlink" x="0px" y="0px"
	 viewBox="0 0 159.6 137.4" style="enable-background:new 0 0 159.6 137.4;" xml:space="preserve">
<style type="text/css">
	.st0{fill:#8F1A20;}
	.st1{opacity:0.95;}
	.st2{fill:#FFFFFF;stroke:#FFFFFF;stroke-width:2;stroke-miterlimit:10;}
	.st3{opacity:0.7;}
	.st4{fill:#FFFFFF;}
</style>
<rect class="st0" width="159.6" height="137.4"/>
<g class="st1">
	<path class="st2" d="M28.8,77.5L13.3,13.9h3.5l12.3,50.9c0.6,2.6,1,4.2,1.1,4.7c0.2-1.1,0.6-2.6,1.1-4.5l12.7-51.1h2.7L59.5,65
		c0.5,1.9,0.8,3.5,1.1,4.5c0.1-0.6,0.5-2.2,1.1-4.7L74,13.9h3.5L62.1,77.5h-2.7L47.9,31.7c-1.1-4.4-1.9-7.7-2.5-10
		c-0.5,2.3-1.4,5.6-2.5,10L31.5,77.5H28.8z"/>
</g>
<g class="st1">
	<path class="st2" d="M129.4,13.9l15.4,63.6h-3.5L129,26.6c-0.6-2.6-1-4.2-1.1-4.7c-0.2,1.1-0.6,2.6-1.1,4.5l-12.7,51.1h-2.7
		L98.7,26.4c-0.5-1.9-0.8-3.5-1.1-4.5c-0.1,0.6-0.5,2.2-1.1,4.7L84.2,77.5h-3.5l15.4-63.6h2.7l11.5,45.8c1.1,4.4,1.9,7.7,2.5,10
		c0.5-2.3,1.4-5.6,2.5-10l11.5-45.8H129.4z"/>
</g>
<g class="st3">
	<path class="st4" d="M15.1,122.4V91.2h18.2v3H18.3v10.6h10.2v2.9H18.3v14.6H15.1z"/>
	<path class="st4" d="M53.4,122.4l-2.8-8.1H38.4l-2.7,8.1h-3.2l10.8-31.2h2.4l10.9,31.2H53.4z M49.6,111.6l-4.3-12.5
		c-0.5-1.3-0.8-2.3-0.9-2.8l-0.4,1.2c-0.2,0.8-0.4,1.4-0.5,1.6l-4.3,12.5H49.6z"/>
	<path class="st4" d="M63,122.4V91.2h11.4c3.4,0,5.8,0.8,7.3,2.5c1.5,1.6,2.3,3.7,2.3,6.1c0,2.1-0.6,4-1.9,5.5
		c-1.2,1.6-3.2,2.6-5.8,3l6.9,14.1h-3.4l-6.7-13.9h-7v13.9H63z M66.2,105.6h8.4c2.3,0,3.9-0.6,5-1.7c1.1-1.1,1.6-2.5,1.6-4.1
		c0-1.5-0.5-2.9-1.5-4.1c-1-1.2-2.7-1.8-5-1.8h-8.4V105.6z"/>
	<path class="st4" d="M118.5,122.4h-3.1v-21.2v-1.9c-0.1,0.2-0.2,0.5-0.4,0.9c-0.2,0.4-0.3,0.7-0.4,0.9l-9.6,21.7l-9-21.7
		c-0.1-0.2-0.2-0.5-0.4-0.8c-0.2-0.4-0.3-0.7-0.4-0.9v1.7v21.2h-3.1V91.2h2.7l9.7,22.5c0.1,0.2,0.2,0.5,0.4,0.8
		c0.2,0.4,0.3,0.7,0.4,0.9c0.1-0.2,0.2-0.5,0.4-0.9c0.2-0.4,0.3-0.7,0.4-0.8l9.8-22.5h2.7V122.4z"/>
	<path class="st4" d="M136.4,122.9c-2.5,0-4.7-0.6-6.6-1.8c-1.9-1.2-3.1-2.7-3.8-4.5l2.9-1.1c0.7,1.4,1.6,2.5,2.9,3.3
		c1.3,0.8,2.8,1.2,4.5,1.2c2,0,3.7-0.5,4.8-1.5c1.2-1,1.8-2.4,1.8-4.3c0-1.7-0.6-3.2-1.9-4.3c-1.3-1.1-3-2.1-5.1-2.9
		c-1.3-0.5-2.4-0.9-3.3-1.4c-0.9-0.5-1.9-1.1-2.8-1.8c-1-0.7-1.7-1.6-2.2-2.6c-0.5-1-0.8-2.1-0.8-3.3c0-2,0.8-3.8,2.5-5.2
		c1.7-1.4,3.9-2.1,6.7-2.1c2.3,0,4.2,0.5,5.7,1.4c1.5,0.9,2.5,2.1,3,3.6l-2.9,1c-0.4-0.9-1.1-1.6-2.2-2.2c-1-0.6-2.3-0.9-3.8-0.9
		c-1.8,0-3.2,0.4-4.3,1.2c-1,0.8-1.6,1.9-1.6,3.2c0,0.8,0.2,1.5,0.6,2.1c0.4,0.6,0.9,1.2,1.7,1.7s1.5,0.9,2.2,1.2
		c0.7,0.3,1.6,0.7,2.7,1.2c1.2,0.5,2.3,1,3.2,1.5c0.9,0.5,1.9,1.2,2.8,2c0.9,0.8,1.7,1.8,2.2,2.9c0.5,1.1,0.8,2.4,0.8,3.8
		c0,2.7-0.9,4.8-2.7,6.3C141.7,122.2,139.3,122.9,136.4,122.9z"/>
</g>
</svg>
