<svg width="38" height="66" viewBox="0 0 38 66" fill="none" xmlns="http://www.w3.org/2000/svg">
<path d="M37 1L26.6679 28.5522C26.6056 28.7184 26.3737 28.727 26.2992 28.5659L19.1815 13.1818C19.1099 13.0271 18.8901 13.0271 18.8185 13.1818L11.7008 28.5659C11.6263 28.727 11.3944 28.7184 11.3321 28.5522L1 1" stroke="black" stroke-width="2"/>
<path d="M37 65L26.6679 37.4478C26.6056 37.2816 26.3737 37.273 26.2992 37.4341L19.1815 52.8182C19.1099 52.9729 18.8901 52.9729 18.8185 52.8182L11.7008 37.4341C11.6263 37.273 11.3944 37.2816 11.3321 37.4478L1 65" stroke="black" stroke-width="2"/>
<line opacity="0.8" x1="33" y1="32.75" x2="5" y2="32.75" stroke="#8F1414" stroke-opacity="0.9" stroke-width="1.5"/>
</svg>
