<?xml version="1.0" standalone="no"?>
<!DOCTYPE svg PUBLIC "-//W3C//DTD SVG 20010904//EN"
 "http://www.w3.org/TR/2001/REC-SVG-20010904/DTD/svg10.dtd">
<svg version="1.0" xmlns="http://www.w3.org/2000/svg"
 width="640.000000pt" height="640.000000pt" viewBox="0 0 640.000000 640.000000"
 preserveAspectRatio="xMidYMid meet">
<metadata>
Created by potrace 1.11, written by Peter Selinger 2001-2013
</metadata>
<g transform="translate(0.000000,640.000000) scale(0.100000,-0.100000)"
fill="#000000" stroke="none">
<path d="M0 3195 l0 -2755 3200 0 3200 0 0 2755 0 2755 -3200 0 -3200 0 0
-2755z m955 1203 c137 -568 251 -1036 255 -1040 3 -5 122 460 264 1032 l258
1040 87 0 86 0 260 -1040 c143 -571 263 -1036 266 -1032 3 4 118 472 255 1039
l249 1033 111 0 111 0 -23 -97 c-40 -170 -594 -2456 -605 -2495 l-10 -38 -83
0 -83 0 -37 143 c-21 78 -140 552 -265 1052 -126 501 -231 903 -234 895 -4 -8
-123 -481 -265 -1050 l-258 -1035 -85 -3 -85 -3 -269 1103 c-148 607 -292
1199 -320 1316 l-52 212 111 0 112 0 249 -1032z m3300 -10 c143 -570 263
-1039 266 -1042 5 -5 213 806 460 1797 l71 287 84 0 83 0 10 -37 c31 -116 621
-2564 621 -2577 0 -14 -15 -16 -104 -16 -58 0 -107 4 -110 8 -3 5 -116 469
-252 1033 -136 563 -250 1028 -254 1032 -4 4 -123 -461 -265 -1033 l-259
-1041 -85 3 -86 3 -259 1043 c-142 573 -260 1041 -262 1039 -3 -3 -504 -2072
-504 -2081 0 -4 -49 -6 -110 -6 -76 0 -110 4 -110 11 0 10 555 2309 617 2557
l16 63 86 -3 86 -3 260 -1037z m1341 -2093 c73 -21 140 -69 174 -122 17 -26
27 -50 23 -54 -5 -3 -30 -14 -58 -23 -44 -14 -50 -15 -58 -1 -14 25 -49 55
-92 78 -33 18 -56 22 -140 22 -84 0 -107 -4 -142 -22 -55 -30 -85 -74 -91
-134 -6 -61 10 -99 58 -143 37 -33 68 -50 271 -144 224 -104 310 -209 312
-382 1 -106 -23 -171 -87 -235 -63 -62 -124 -92 -218 -105 -132 -19 -268 12
-365 84 -55 40 -123 124 -123 151 0 6 23 19 52 30 l52 18 21 -29 c75 -107 161
-148 300 -142 108 4 163 30 209 96 25 35 31 55 34 113 9 148 -70 229 -324 329
-86 34 -197 102 -238 146 -96 101 -102 270 -13 370 35 40 100 81 160 99 58 19
222 19 283 0z m-4266 -65 l0 -60 -300 0 -300 0 0 -210 0 -210 205 0 205 0 0
-60 0 -60 -205 0 -205 0 0 -290 0 -290 -60 0 -60 0 0 620 0 620 360 0 360 0 0
-60z m716 -555 c118 -335 214 -616 214 -622 0 -18 -106 -18 -117 0 -4 6 -31
80 -59 162 l-52 150 -247 0 -248 0 -54 -162 -55 -163 -60 0 c-53 0 -60 2 -56
18 5 19 400 1161 417 1206 10 25 15 27 57 24 l47 -3 213 -610z m1119 590 c70
-26 146 -104 175 -180 33 -87 32 -202 -2 -276 -47 -102 -119 -161 -232 -190
-25 -6 -46 -12 -46 -14 0 -1 61 -127 135 -279 74 -153 135 -280 135 -282 0 -2
-28 -4 -63 -4 l-64 0 -134 280 -134 279 -142 1 -143 0 -2 -277 -3 -278 -57 -3
-58 -3 0 626 0 627 293 -4 c254 -4 299 -7 342 -23z m837 -440 c110 -253 202
-468 205 -477 13 -44 13 -45 272 552 l167 385 52 3 52 3 0 -625 0 -626 -60 0
-60 0 0 462 c0 254 -4 458 -8 452 -5 -5 -98 -213 -208 -461 -109 -249 -201
-453 -204 -453 -3 0 -81 185 -174 410 -93 225 -179 431 -191 457 l-23 48 -1
-452 -1 -453 -60 0 -60 0 0 621 0 620 51 -3 52 -3 199 -460z"/>
<path d="M1761 2038 c-7 -24 -53 -159 -102 -302 -49 -142 -89 -260 -89 -262 0
-2 95 -4 210 -4 116 0 210 2 210 5 0 2 -45 135 -100 294 -55 159 -100 294
-100 300 0 27 -18 7 -29 -31z"/>
<path d="M2660 1950 l0 -242 208 3 208 4 59 30 c85 43 119 100 120 199 0 60
-4 79 -30 124 -56 102 -92 114 -357 120 l-208 4 0 -242z"/>
</g>
</svg>
